<svg preserveAspectRatio="none" overflow="visible" style="display: block;" width="63.8525" height="52.2791" viewBox="0 0 63.8525 52.2791" fill="none" xmlns="http://www.w3.org/2000/svg">
<g id="Group 1000005921">
<path id="Vector 76" d="M62.3391 3.83944C62.8418 3.72528 63.2786 3.41607 63.5534 2.97985C63.8282 2.54364 63.9184 2.01613 63.8042 1.51339C63.6901 1.01065 63.3809 0.573855 62.9446 0.299091C62.5084 0.0243264 61.9809 -0.065897 61.4782 0.0482684C60.3792 0.297851 59.2863 0.564938 58.1973 0.848406C53.5197 2.07319 48.9278 3.55616 44.4251 5.3878C44.4234 5.38848 44.4217 5.38917 44.4201 5.38985C40.7893 6.96456 37.6487 8.83744 34.5222 10.9675C34.52 10.9691 34.5178 10.9706 34.5156 10.9721C29.3738 14.5244 24.8568 19.0986 21.4896 24.4215C21.4759 24.4431 21.4374 24.5089 21.425 24.5312C21.4242 24.5328 21.4233 24.5344 21.4224 24.536C19.1787 28.6689 17.6719 32.9153 16.3801 37.2087C16.3775 37.2175 16.3699 37.244 16.3675 37.2529C16.3674 37.2533 16.3673 37.2537 16.3672 37.2541C16.0751 38.3239 15.8999 39.4571 15.9009 40.6402C15.9015 41.8477 16.0984 43.1077 16.5518 44.2786C16.6287 44.4643 16.7351 44.6427 16.8863 44.7744C17.0375 44.9062 17.2196 44.9806 17.4073 44.9814C17.5949 44.9822 17.7777 44.9093 17.93 44.7788C18.0823 44.6483 18.1902 44.4709 18.2686 44.2858C18.2686 44.2858 18.2686 44.2858 18.2686 44.2858C18.7296 43.2451 19.1878 42.3008 19.5986 41.3366C20.0002 40.3965 20.3572 39.4359 20.6343 38.4209C20.6344 38.4206 20.6346 38.4202 20.6347 38.4198L20.6221 38.464C21.8576 34.3353 23.153 30.1726 25.088 26.5462C25.0888 26.5449 25.0895 26.5435 25.0903 26.5421L25.0257 26.6518C28.0446 21.7883 32.1285 17.624 36.8453 14.3051C36.8474 14.3036 36.8494 14.3022 36.8515 14.3008C39.7251 12.2962 42.8279 10.3096 45.8938 8.98739C45.8954 8.98674 45.897 8.98609 45.8986 8.98544C50.193 7.23763 54.6647 5.79115 59.1768 4.61071C60.2279 4.33707 61.2817 4.07958 62.3391 3.83944Z" fill="#FFF7E6"/>
<path id="Vector 77" d="M10.7817 47.8536C11.1754 47.9528 11.5923 47.8915 11.9408 47.6833C12.2893 47.475 12.5408 47.1369 12.64 46.7432C12.7392 46.3495 12.6779 45.9325 12.4696 45.584C12.2614 45.2355 11.9232 44.984 11.5295 44.8848C11.5295 44.8848 11.5295 44.8848 11.5295 44.8848C11.6192 44.9107 11.4968 44.8727 11.4341 44.8469C11.3664 44.8208 11.2842 44.7876 11.2037 44.7542C11.0453 44.6885 10.8732 44.6138 10.7103 44.5413C10.3765 44.3927 10.0404 44.2356 9.70642 44.0744C7.42445 42.9601 5.16229 41.6805 3.29121 40.153C3.26655 40.1326 3.24267 40.1114 3.21947 40.0897C3.16247 40.0306 3.13331 39.9416 3.15993 39.9209C3.1737 39.9159 3.204 39.9159 3.26115 40.0401C3.28738 40.1076 3.32967 40.2017 3.33553 40.4345C3.3447 40.6423 3.26275 41.145 2.86097 41.5143C2.64359 41.7177 2.40652 41.8185 2.24015 41.8641C2.11081 41.8877 2.25015 41.857 2.46274 41.9303C2.67573 41.9951 2.96142 42.1233 3.23998 42.274C3.81324 42.5833 4.42068 42.9976 5.01758 43.436C6.21545 44.3198 7.40629 45.3188 8.61104 46.3241C11.0447 48.3238 13.3917 50.4629 16.4906 52.1277C16.8438 52.3087 17.5782 52.3318 17.942 52.1733C17.9977 52.149 18.0532 52.1245 18.1087 52.0996C22.4518 50.089 25.6417 46.8287 28.6656 43.7363L28.5383 43.8506C28.5453 43.8448 28.5523 43.839 28.5593 43.8332C28.62 43.7833 28.6798 43.7318 28.739 43.6789C29.2356 43.2329 29.7263 42.6767 30.328 42.1773C30.532 42.0065 30.6667 41.7411 30.7148 41.4599C30.7621 41.1776 30.7189 40.9027 30.5823 40.6751C30.4458 40.4476 30.2235 40.2801 29.9522 40.189C29.6815 40.0991 29.384 40.093 29.1372 40.1926C29.1372 40.1926 29.1372 40.1926 29.1372 40.1926C28.4192 40.4833 27.5913 40.7265 26.864 41.215C26.7785 41.2723 26.6947 41.3326 26.6133 41.3962C26.6039 41.4035 26.5946 41.4108 26.5852 41.4182C26.5586 41.4401 26.4819 41.5078 26.4579 41.5325C23.4145 44.5164 20.2627 47.3846 16.7209 49.0038C16.6762 49.0239 16.6315 49.0436 16.5868 49.0631L18.0382 49.1087C15.5791 47.805 13.1833 45.7178 10.7718 43.7312C9.55665 42.7242 8.33663 41.7035 7.00357 40.7256C6.33259 40.238 5.63674 39.7567 4.82344 39.3188C3.98445 38.9438 3.15659 38.2849 1.34719 38.6395C1.12555 38.7003 0.836227 38.8268 0.57731 39.0691C0.101799 39.5059 -0.00886977 40.112 0.000539064 40.4175C0.00632465 40.7502 0.0712651 40.9405 0.128943 41.1017C0.250198 41.4127 0.380016 41.5863 0.504706 41.7436C0.755964 42.0481 1.00384 42.2448 1.24919 42.44C1.27959 42.4632 1.30957 42.487 1.33906 42.5114C3.56003 44.3159 5.92731 45.6299 8.3751 46.8313C8.73383 47.0045 9.09547 47.1736 9.46534 47.3383C9.64628 47.4188 9.83943 47.5028 10.0308 47.5822C10.1285 47.6227 10.232 47.6646 10.3325 47.7033C10.4637 47.7511 10.5032 47.7763 10.7817 47.8536Z" fill="#FFF7E6"/>
</g>
</svg>
